<svg width="100" height="100" viewBox="0 0 100 100" fill="none" xmlns="http://www.w3.org/2000/svg">
<path d="M31.2458 45.8333C34.6976 45.8333 37.4958 43.0351 37.4958 39.5833C37.4958 36.1315 34.6976 33.3333 31.2458 33.3333C27.7941 33.3333 24.9958 36.1315 24.9958 39.5833C24.9958 43.0351 27.7941 45.8333 31.2458 45.8333Z" fill="#646464"/>
<path d="M43.7458 58.3333L37.4958 50L24.9958 66.6667H74.9958L56.2458 41.6667L43.7458 58.3333Z" fill="#646464"/>
<path d="M83.3292 16.6667H16.6626C12.0667 16.6667 8.32922 20.4042 8.32922 25V75C8.32922 79.5958 12.0667 83.3333 16.6626 83.3333H83.3292C87.9251 83.3333 91.6626 79.5958 91.6626 75V25C91.6626 20.4042 87.9251 16.6667 83.3292 16.6667ZM16.6626 75V25H83.3292L83.3376 75H16.6626Z" fill="#646464"/>
</svg>
