<svg width="150" height="150" viewBox="0 0 150 150" fill="none" xmlns="http://www.w3.org/2000/svg">
<path d="M147.656 75C147.656 115.127 115.127 147.656 75 147.656C34.873 147.656 2.34375 115.127 2.34375 75C2.34375 34.873 34.873 2.34375 75 2.34375C115.127 2.34375 147.656 34.873 147.656 75ZM106.157 64.6494C107.603 54.9817 100.242 49.7845 90.1755 46.3175L93.4409 33.2212L85.4684 31.2346L82.2894 43.9857C80.1935 43.4634 78.0407 42.9709 75.9018 42.4828L79.1036 29.6479L71.1355 27.6612L67.868 40.7528C66.133 40.3576 64.43 39.9671 62.7771 39.5563L62.7861 39.5153L51.791 36.7702L49.6702 45.2845C49.6702 45.2845 55.5855 46.64 55.4607 46.7238C58.6898 47.5298 59.2734 49.6664 59.1756 51.3601L55.4561 66.2795C55.6787 66.3363 55.967 66.4181 56.2849 66.5452C56.0191 66.4793 55.7353 66.4066 55.4423 66.3363L50.2286 87.2361C49.8334 88.217 48.832 89.6883 46.575 89.1299C46.6544 89.2456 40.7801 87.6835 40.7801 87.6835L36.8221 96.8086L47.1973 99.3946C49.1273 99.8783 51.019 100.385 52.8809 100.861L49.5814 114.107L57.5449 116.094L60.8124 102.988C62.9243 103.561 65.0423 104.11 67.166 104.637L63.9097 117.681L71.8822 119.667L75.1816 106.446C88.7766 109.019 98.9997 107.981 103.303 95.6865C106.77 85.7871 103.13 80.0769 95.9771 76.3532C101.186 75.1526 105.11 71.7267 106.157 64.6494ZM87.941 90.1901C85.4771 100.09 68.8078 94.7379 63.4034 93.3961L67.7815 75.8476C73.1856 77.1961 90.5159 79.8662 87.941 90.1901ZM90.4069 64.5064C88.159 73.5111 74.2846 68.9361 69.784 67.8147L73.7531 51.8985C78.254 53.02 92.748 55.1133 90.4069 64.5064Z" fill="#E3AB3F"/>
</svg>
