<svg width="150" height="134" viewBox="0 0 150 134" fill="none" xmlns="http://www.w3.org/2000/svg">
<path d="M16.6667 16.6667C7.47396 16.6667 0 24.1406 0 33.3334V100C0 109.193 7.47396 116.667 16.6667 116.667H133.333C142.526 116.667 150 109.193 150 100V33.3334C150 24.1406 142.526 16.6667 133.333 16.6667H16.6667ZM29.1667 58.3334H70.8333C73.125 58.3334 75 60.2084 75 62.5C75 64.7917 73.125 66.6667 70.8333 66.6667H29.1667C26.875 66.6667 25 64.7917 25 62.5C25 60.2084 26.875 58.3334 29.1667 58.3334ZM25 87.5C25 85.2084 26.875 83.3334 29.1667 83.3334H120.833C123.125 83.3334 125 85.2084 125 87.5C125 89.7917 123.125 91.6667 120.833 91.6667H29.1667C26.875 91.6667 25 89.7917 25 87.5ZM97.9167 41.6667H118.75C122.214 41.6667 125 44.4531 125 47.9167V60.4167C125 63.8802 122.214 66.6667 118.75 66.6667H97.9167C94.4531 66.6667 91.6667 63.8802 91.6667 60.4167V47.9167C91.6667 44.4531 94.4531 41.6667 97.9167 41.6667Z" fill="#45CC39"/>
</svg>
