<svg width="150" height="150" viewBox="0 0 150 150" fill="none" xmlns="http://www.w3.org/2000/svg">
<g clip-path="url(#clip0_59_3)">
<path d="M71.3086 0.761719L5.6836 28.8867C1.58204 30.6445 -0.703117 35.0391 0.205086 39.375C1.11329 43.7109 4.92188 46.875 9.37501 46.875V49.2188C9.37501 53.1152 12.5098 56.25 16.4063 56.25H133.594C137.49 56.25 140.625 53.1152 140.625 49.2188V46.875C145.078 46.875 148.916 43.7402 149.795 39.375C150.674 35.0098 148.389 30.6152 144.316 28.8867L78.6914 0.761719C76.3184 -0.234375 73.6523 -0.234375 71.3086 0.761719ZM37.5 65.625H18.75V123.135C18.5742 123.223 18.3984 123.34 18.2227 123.457L4.16016 132.832C0.732429 135.117 -0.820305 139.395 0.380867 143.35C1.58204 147.305 5.24415 150 9.37501 150H140.625C144.756 150 148.389 147.305 149.59 143.35C150.791 139.395 149.268 135.117 145.811 132.832L131.748 123.457C131.572 123.34 131.396 123.252 131.221 123.135V65.625H112.5V121.875H100.781V65.625H82.0313V121.875H67.9688V65.625H49.2188V121.875H37.5V65.625ZM75 37.5C69.8145 37.5 65.625 33.3105 65.625 28.125C65.625 22.9395 69.8145 18.75 75 18.75C80.1856 18.75 84.375 22.9395 84.375 28.125C84.375 33.3105 80.1856 37.5 75 37.5Z" fill="#B05DBD"/>
</g>
<defs>
<clipPath id="clip0_59_3">
<rect width="150" height="150" fill="white"/>
</clipPath>
</defs>
</svg>
