 <!DOCTYPE svg PUBLIC "-//W3C//DTD SVG 1.1//EN" "http://www.w3.org/Graphics/SVG/1.1/DTD/svg11.dtd">
<svg xmlns="http://www.w3.org/2000/svg" width="865.76" height="682.89" viewBox="0 0 865.76 682.89">
<defs>
<style xmlns="http://www.w3.org/1999/xhtml">*, ::after, ::before { box-sizing: border-box; }
img, svg { vertical-align: middle; }
</style>
<style xmlns="http://www.w3.org/1999/xhtml">*, body, html { -webkit-font-smoothing: antialiased; }
img, svg { max-width: 100%; }
</style>
</defs>
<path d="M715.84,482.19C701.16,464.73,677.06,450,683.06,428c4.9-18,23.64-27.69,38.07-39.51,25.8-21.12,40.75-54.84,39.09-88.14-.84-17-6.22-34.41-18.4-46.26s-32.09-16.55-46.79-8c-1-20.32,10.56-38.79,19.39-57.12s15-41,4.15-58.24c-8.21-13-24.1-19.1-39.33-21.38-45.6-6.82-88.57,19.57-119.15,54.08-64.31,72.57-42.53.69-111.6-55.22s-8,151.86-8,151.86C410.9,209.27,380.25,157.2,334,120.9c-9.15-7.2-19.32-13.89-30.86-15.42S278.5,109,274,119.71c-5.31,12.56,2.62,26.6,11.11,37.27s18.46,22.2,17.61,35.81c-1,16.9-19.38,28.39-36.32,28.33S233.78,212.76,218.7,205s-31.35-15.25-48.2-13.58c-26.33,2.62-46.35,29.14-46.4,55.6s16.68,51,38.82,65.51c9.62,6.3,20.31,11.06,29,18.57S207.29,350,205.1,361.3c-3.09,15.9-20.74,23.42-34.91,31.28a128.53,128.53,0,0,0-56.71,64.57c-2.2,5.55-4,11.67-2.41,17.42,3.11,11.12,16.66,15,28.1,16.51,27.34,3.54,55.51,3.92,81.38,13.45,10.28,3.79,20.9,9.93,24.45,20.3,0,0-79.43,57.11-45.24,82.53s251.69-9.39,307.78,0,164.57,0,164.57,0S785.71,565.24,715.84,482.19Z" fill="#a553ca" data-primary="true"/>
<path d="M249,130.41c-2.46-28.33-38.35-53.64-65-37.1-3.42,2.12-45.74,29.94,8.58,79.61C216,194.35,251.52,159.87,249,130.41Z" fill="#a553ca" data-primary="true"/>
<path d="M602.16,34.16c-18.7-18.27-71.94,15.78-81.81,39.1C516,83.55,511,96,514.26,107.34c4.23,14.61,19.56,18.43,32.75,14.42,25.15-7.64,54.46-27.7,62-54C612.17,56.46,611.08,42.87,602.16,34.16Z" fill="#a553ca" data-primary="true"/>
<path d="M371.88,50.69c-7.27-7.47-18.94-11.6-28.19-5.19-9,6.22-8.81,19.5-6.09,28.94a28,28,0,0,0,7.56,12.46c4.56,8.32,12.64,15.71,22.49,13.52C390.17,95.39,383.56,62.69,371.88,50.69Z" fill="#a553ca" data-primary="true"/>
<path d="M745.47,417.05c-7.93-4.78-26.71,1-27.35,1.38-.13,0-14.92,5.31-17.27,12.9-6.15,19.9,16.91,32.79,33.67,27.07,8.43-2.88,16.35-9.17,19.27-17.83A19.85,19.85,0,0,0,745.47,417.05Z" fill="#a553ca" data-primary="true"/>
<path d="M168.38,512.3c-4.59.73-61.45,16.33-40.36,59.21,7.21,14.66,30.74,9.2,43.62,1.6,12.4-7.32,27.83-22.79,28.28-38.09C200.45,517.33,183.79,509.87,168.38,512.3Z" fill="#a553ca" data-primary="true"/>
<path d="M181,37.38c-2.06-5.07-4.63-9.65-9-13.07-8.32-6.46-21.81-5.83-27.78,3.59a17.77,17.77,0,0,0-1.35,16c2.06,5.21,21.55,18.7,27.25,18.74,6.26,0,11.53-4.72,13-10.65C184.24,46.94,182.85,42,181,37.38Z" fill="#a553ca" data-primary="true"/>
<path d="M731,32.86c-7.52-10.64-21.4-12.5-31.89-5.08a64,64,0,0,0-20.92,24.89,24.59,24.59,0,0,0-2.06,8.27c-1.81,5.21-2.13,10.66.77,15.62,5.7,9.73,20,9.76,29.57,7.11a41.31,41.31,0,0,0,24.25-18.51C736.48,55.3,737.76,42.49,731,32.86Z" fill="#a553ca" data-primary="true"/>
<path d="M767.69,187.13c-1-7.2-9.57-9.92-15.58-8.85a20.33,20.33,0,0,0-8.72,4,15.58,15.58,0,0,0-4.17,1.8c-8,4.94-12.06,17.12-9.4,26.07,1.78,6,6.49,10.69,12.77,11.53,6.12.82,11.56-1.69,15.46-6.41a51.65,51.65,0,0,0,7.27-10.58A28.92,28.92,0,0,0,767.69,187.13Z" fill="#a553ca" data-primary="true"/>
<path d="M149.41,319.67c-11-4.25-25.65-5.36-36.55-.06-11.87,5.78-18.5,19.51-13.55,32.19,2.1,5.37,21.35,35,52.65,24.1,11.27-3.94,19.88-13.88,19.92-26.06C171.93,335.84,162,324.51,149.41,319.67Z" fill="#a553ca" data-primary="true"/>
<g opacity="0.7">
<path d="M715.84,482.19C701.16,464.73,677.06,450,683.06,428c4.9-18,23.64-27.69,38.07-39.51,25.8-21.12,40.75-54.84,39.09-88.14-.84-17-6.22-34.41-18.4-46.26s-32.09-16.55-46.79-8c-1-20.32,10.56-38.79,19.39-57.12s15-41,4.15-58.24c-8.21-13-24.1-19.1-39.33-21.38-45.6-6.82-88.57,19.57-119.15,54.08-64.31,72.57-42.53.69-111.6-55.22s-8,151.86-8,151.86C410.9,209.27,380.25,157.2,334,120.9c-9.15-7.2-19.32-13.89-30.86-15.42S278.5,109,274,119.71c-5.31,12.56,2.62,26.6,11.11,37.27s18.46,22.2,17.61,35.81c-1,16.9-19.38,28.39-36.32,28.33S233.78,212.76,218.7,205s-31.35-15.25-48.2-13.58c-26.33,2.62-46.35,29.14-46.4,55.6s16.68,51,38.82,65.51c9.62,6.3,20.31,11.06,29,18.57S207.29,350,205.1,361.3c-3.09,15.9-20.74,23.42-34.91,31.28a128.53,128.53,0,0,0-56.71,64.57c-2.2,5.55-4,11.67-2.41,17.42,3.11,11.12,16.66,15,28.1,16.51,27.34,3.54,55.51,3.92,81.38,13.45,10.28,3.79,20.9,9.93,24.45,20.3,0,0-79.43,57.11-45.24,82.53s251.69-9.39,307.78,0,164.57,0,164.57,0S785.71,565.24,715.84,482.19Z" fill="#fff"/>
<path d="M249,130.41c-2.46-28.33-38.35-53.64-65-37.1-3.42,2.12-45.74,29.94,8.58,79.61C216,194.35,251.52,159.87,249,130.41Z" fill="#fff"/>
<path d="M602.16,34.16c-18.7-18.27-71.94,15.78-81.81,39.1C516,83.55,511,96,514.26,107.34c4.23,14.61,19.56,18.43,32.75,14.42,25.15-7.64,54.46-27.7,62-54C612.17,56.46,611.08,42.87,602.16,34.16Z" fill="#fff"/>
<path d="M371.88,50.69c-7.27-7.47-18.94-11.6-28.19-5.19-9,6.22-8.81,19.5-6.09,28.94a28,28,0,0,0,7.56,12.46c4.56,8.32,12.64,15.71,22.49,13.52C390.17,95.39,383.56,62.69,371.88,50.69Z" fill="#fff"/>
<path d="M745.47,417.05c-7.93-4.78-26.71,1-27.35,1.38-.13,0-14.92,5.31-17.27,12.9-6.15,19.9,16.91,32.79,33.67,27.07,8.43-2.88,16.35-9.17,19.27-17.83A19.85,19.85,0,0,0,745.47,417.05Z" fill="#fff"/>
<path d="M168.38,512.3c-4.59.73-61.45,16.33-40.36,59.21,7.21,14.66,30.74,9.2,43.62,1.6,12.4-7.32,27.83-22.79,28.28-38.09C200.45,517.33,183.79,509.87,168.38,512.3Z" fill="#fff"/>
<path d="M181,37.38c-2.06-5.07-4.63-9.65-9-13.07-8.32-6.46-21.81-5.83-27.78,3.59a17.77,17.77,0,0,0-1.35,16c2.06,5.21,21.55,18.7,27.25,18.74,6.26,0,11.53-4.72,13-10.65C184.24,46.94,182.85,42,181,37.38Z" fill="#fff"/>
<path d="M731,32.86c-7.52-10.64-21.4-12.5-31.89-5.08a64,64,0,0,0-20.92,24.89,24.59,24.59,0,0,0-2.06,8.27c-1.81,5.21-2.13,10.66.77,15.62,5.7,9.73,20,9.76,29.57,7.11a41.31,41.31,0,0,0,24.25-18.51C736.48,55.3,737.76,42.49,731,32.86Z" fill="#fff"/>
<path d="M767.69,187.13c-1-7.2-9.57-9.92-15.58-8.85a20.33,20.33,0,0,0-8.72,4,15.58,15.58,0,0,0-4.17,1.8c-8,4.94-12.06,17.12-9.4,26.07,1.78,6,6.49,10.69,12.77,11.53,6.12.82,11.56-1.69,15.46-6.41a51.65,51.65,0,0,0,7.27-10.58A28.92,28.92,0,0,0,767.69,187.13Z" fill="#fff"/>
<path d="M149.41,319.67c-11-4.25-25.65-5.36-36.55-.06-11.87,5.78-18.5,19.51-13.55,32.19,2.1,5.37,21.35,35,52.65,24.1,11.27-3.94,19.88-13.88,19.92-26.06C171.93,335.84,162,324.51,149.41,319.67Z" fill="#fff"/>
</g>
<path d="M547.12,213.28c.87-.74,1.4-1.54,1.18-1.79l-74.66-86.72c-.21-.25-1.08.15-1.94.9s-1.39,1.54-1.18,1.79l74.66,86.72C545.39,214.43,546.26,214,547.12,213.28Z" fill="#2f2e41" data-secondary="true"/>
<path d="M547.11,210.17l.51.54a12.7,12.7,0,0,0-2.47,3.22l-.68-.29A13.1,13.1,0,0,1,547.11,210.17Z" fill="#a553ca" data-primary="true"/>
<path d="M543.67,206.17l.51.54a12.9,12.9,0,0,0-2.47,3.22l-.68-.28A13.21,13.21,0,0,1,543.67,206.17Z" fill="#a553ca" data-primary="true"/>
<path d="M540.24,202.18l.51.54a12.42,12.42,0,0,0-2.48,3.22l-.68-.29A12.84,12.84,0,0,1,540.24,202.18Z" fill="#a553ca" data-primary="true"/>
<path d="M536.8,198.18l.51.54a12.61,12.61,0,0,0-2.48,3.22l-.68-.28A13,13,0,0,1,536.8,198.18Z" fill="#a553ca" data-primary="true"/>
<path d="M533.36,194.19l.51.54a12.42,12.42,0,0,0-2.48,3.22l-.68-.29A13.06,13.06,0,0,1,533.36,194.19Z" fill="#a553ca" data-primary="true"/>
<path d="M529.92,190.19l.51.54A12.61,12.61,0,0,0,528,194l-.68-.28A13.17,13.17,0,0,1,529.92,190.19Z" fill="#a553ca" data-primary="true"/>
<path d="M526.48,186.2l.51.53a13,13,0,0,0-2.48,3.23l-.68-.29A12.88,12.88,0,0,1,526.48,186.2Z" fill="#a553ca" data-primary="true"/>
<path d="M523,182.2l.51.54a12.85,12.85,0,0,0-2.48,3.22l-.68-.29A13.24,13.24,0,0,1,523,182.2Z" fill="#a553ca" data-primary="true"/>
<path d="M519.6,178.21l.51.53a13,13,0,0,0-2.48,3.23l-.68-.29A12.88,12.88,0,0,1,519.6,178.21Z" fill="#a553ca" data-primary="true"/>
<path d="M516.16,174.21l.51.54a12.85,12.85,0,0,0-2.48,3.22l-.68-.29A13.24,13.24,0,0,1,516.16,174.21Z" fill="#a553ca" data-primary="true"/>
<path d="M512.72,170.21l.51.54a13,13,0,0,0-2.48,3.23l-.68-.29A13.17,13.17,0,0,1,512.72,170.21Z" fill="#a553ca" data-primary="true"/>
<path d="M509.28,166.22l.51.54a12.85,12.85,0,0,0-2.48,3.22l-.68-.29A13.24,13.24,0,0,1,509.28,166.22Z" fill="#a553ca" data-primary="true"/>
<path d="M505.84,162.22l.51.54a12.86,12.86,0,0,0-2.47,3.22l-.69-.28A13.17,13.17,0,0,1,505.84,162.22Z" fill="#a553ca" data-primary="true"/>
<path d="M502.4,158.23l.51.54a12.66,12.66,0,0,0-2.47,3.22l-.69-.29A13.24,13.24,0,0,1,502.4,158.23Z" fill="#a553ca" data-primary="true"/>
<path d="M499,154.23l.51.54A12.66,12.66,0,0,0,497,158l-.69-.28A13.39,13.39,0,0,1,499,154.23Z" fill="#a553ca" data-primary="true"/>
<path d="M495.52,150.24l.51.54a12.66,12.66,0,0,0-2.47,3.22l-.69-.29A13.47,13.47,0,0,1,495.52,150.24Z" fill="#a553ca" data-primary="true"/>
<path d="M492.08,146.24l.51.54a12.66,12.66,0,0,0-2.47,3.22l-.69-.28A13.39,13.39,0,0,1,492.08,146.24Z" fill="#a553ca" data-primary="true"/>
<path d="M488.64,142.25l.51.54a12.46,12.46,0,0,0-2.47,3.22l-.69-.29A13.28,13.28,0,0,1,488.64,142.25Z" fill="#a553ca" data-primary="true"/>
<path d="M485.2,138.25l.51.54a12.66,12.66,0,0,0-2.47,3.22l-.69-.28A13.39,13.39,0,0,1,485.2,138.25Z" fill="#a553ca" data-primary="true"/>
<path d="M481.76,134.26l.51.54A12.46,12.46,0,0,0,479.8,138l-.69-.29A13.28,13.28,0,0,1,481.76,134.26Z" fill="#a553ca" data-primary="true"/>
<path d="M478.32,130.26l.51.54a12.66,12.66,0,0,0-2.47,3.22l-.69-.28A13.39,13.39,0,0,1,478.32,130.26Z" fill="#a553ca" data-primary="true"/>
<path d="M474.88,126.27l.51.54a12.7,12.7,0,0,0-2.47,3.22l-.69-.29A13.28,13.28,0,0,1,474.88,126.27Z" fill="#a553ca" data-primary="true"/>
<path d="M424.78,207c.56,1,1.24,1.67,1.52,1.51L526,152.34c.28-.16.06-1.09-.5-2.08s-1.24-1.67-1.52-1.51L424.28,204.9C424,205.06,424.22,206,424.78,207Z" fill="#2f2e41" data-secondary="true"/>
<path d="M427.83,207.59l-.63.4a12.21,12.21,0,0,0-2.67-3.06l.42-.62A13.27,13.27,0,0,1,427.83,207.59Z" fill="#a553ca" data-primary="true"/>
<path d="M432.43,205l-.63.4a12.87,12.87,0,0,0-2.67-3.06l.41-.62A13.58,13.58,0,0,1,432.43,205Z" fill="#a553ca" data-primary="true"/>
<path d="M437,202.42l-.63.39a12.82,12.82,0,0,0-2.67-3.06l.41-.61A13,13,0,0,1,437,202.42Z" fill="#a553ca" data-primary="true"/>
<path d="M441.61,199.83l-.63.39a12.41,12.41,0,0,0-2.67-3.05l.42-.62A13.27,13.27,0,0,1,441.61,199.83Z" fill="#a553ca" data-primary="true"/>
<path d="M446.21,197.24l-.63.4a12.87,12.87,0,0,0-2.67-3.06l.41-.62A13.34,13.34,0,0,1,446.21,197.24Z" fill="#a553ca" data-primary="true"/>
<path d="M450.8,194.66l-.63.39A12.63,12.63,0,0,0,447.5,192l.41-.61A13,13,0,0,1,450.8,194.66Z" fill="#a553ca" data-primary="true"/>
<path d="M455.39,192.07l-.62.39a13,13,0,0,0-2.68-3.06l.42-.61A13.09,13.09,0,0,1,455.39,192.07Z" fill="#a553ca" data-primary="true"/>
<path d="M460,189.48l-.63.4a12.67,12.67,0,0,0-2.67-3.06l.41-.62A13.16,13.16,0,0,1,460,189.48Z" fill="#a553ca" data-primary="true"/>
<path d="M464.58,186.89l-.63.4a12.63,12.63,0,0,0-2.67-3.06l.41-.62A13.34,13.34,0,0,1,464.58,186.89Z" fill="#a553ca" data-primary="true"/>
<path d="M469.17,184.31l-.62.39a13,13,0,0,0-2.68-3.06l.42-.61A13.09,13.09,0,0,1,469.17,184.31Z" fill="#a553ca" data-primary="true"/>
<path d="M473.77,181.72l-.63.39a12.65,12.65,0,0,0-2.67-3.05l.41-.62A13.16,13.16,0,0,1,473.77,181.72Z" fill="#a553ca" data-primary="true"/>
<path d="M478.36,179.13l-.63.4a12.63,12.63,0,0,0-2.67-3.06l.42-.62A13.45,13.45,0,0,1,478.36,179.13Z" fill="#a553ca" data-primary="true"/>
<path d="M483,176.55l-.62.39a13,13,0,0,0-2.68-3.06l.42-.61A12.87,12.87,0,0,1,483,176.55Z" fill="#a553ca" data-primary="true"/>
<path d="M487.55,174l-.63.39a12.82,12.82,0,0,0-2.67-3.06l.41-.61A13.16,13.16,0,0,1,487.55,174Z" fill="#a553ca" data-primary="true"/>
<path d="M492.14,171.37l-.63.4a12.44,12.44,0,0,0-2.67-3.06l.42-.62A13.27,13.27,0,0,1,492.14,171.37Z" fill="#a553ca" data-primary="true"/>
<path d="M496.73,168.79l-.62.39a12.75,12.75,0,0,0-2.68-3.06l.42-.61A12.87,12.87,0,0,1,496.73,168.79Z" fill="#a553ca" data-primary="true"/>
<path d="M501.33,166.2l-.63.39a12.82,12.82,0,0,0-2.67-3.06l.41-.61A13,13,0,0,1,501.33,166.2Z" fill="#a553ca" data-primary="true"/>
<path d="M505.92,163.61l-.63.4a12.44,12.44,0,0,0-2.67-3.06l.42-.62A13.27,13.27,0,0,1,505.92,163.61Z" fill="#a553ca" data-primary="true"/>
<path d="M510.51,161l-.62.4a12.75,12.75,0,0,0-2.68-3.06l.42-.62A13.22,13.22,0,0,1,510.51,161Z" fill="#a553ca" data-primary="true"/>
<path d="M515.11,158.44l-.63.39a12.82,12.82,0,0,0-2.67-3.06l.41-.61A13,13,0,0,1,515.11,158.44Z" fill="#a553ca" data-primary="true"/>
<path d="M519.7,155.85l-.63.39a12.65,12.65,0,0,0-2.67-3.05l.42-.62A13.27,13.27,0,0,1,519.7,155.85Z" fill="#a553ca" data-primary="true"/>
<path d="M524.29,153.26l-.62.4A12.75,12.75,0,0,0,521,150.6l.42-.62A13,13,0,0,1,524.29,153.26Z" fill="#a553ca" data-primary="true"/>
<path d="M564.1,604.54l2.83,34.1s2.66,16.3-9.81,19c0,0-5.49.49-5,3.65,0,0,16.13,5.49,24-4a68.61,68.61,0,0,1,6.26-10,30.23,30.23,0,0,1,8.17-7.32,7.13,7.13,0,0,0,3.26-4.12,5.74,5.74,0,0,0-1.42-5.32,11.57,11.57,0,0,0-7.12-3.85s-3.66-5.16-1.5-15.47Z" fill="#f9b499"/>
<path d="M577.41,609s-.67,14.31,7.82,17.64c0,0-3.83-6-1.5-15.47Z" fill="#f7a48b"/>
<path d="M568.77,626.91a12.31,12.31,0,0,1-5.85-1.09,2.67,2.67,0,0,1-1-3.75,6.11,6.11,0,0,1,3.27-2.26l.55,1.92a4.13,4.13,0,0,0-2.12,1.4.63.63,0,0,0-.08.52.75.75,0,0,0,.33.43c1.11.61,4.19,1.44,12.36.1,3.13-.31,8.5-1.27,9.85-2.57a.18.18,0,0,0,.06-.18.19.19,0,0,0-.12-.17,5.25,5.25,0,0,0-2.71-.25l-.19-2a7,7,0,0,1,3.77.44,2.19,2.19,0,0,1,1.23,1.66,2.23,2.23,0,0,1-.65,1.94c-2.3,2.19-10.1,3-11,3.1A48.21,48.21,0,0,1,568.77,626.91Z" fill="#a553ca" data-primary="true"/>
<path d="M470.12,641.14c1.85,7.64-4.16,8.62-7.4,8.61a15,15,0,0,1-1.92-.13c-11.14.5-18.13,4.33-18.13,4.33a50.68,50.68,0,0,1-24.45.49c-6.32-2.49,10.31-6.32,10.31-6.32,12.31-6,24.29-36.26,24.29-36.26l15.07.86,8.22.47s-14.31,18.63-10.65,21.29a4.19,4.19,0,0,1,.33.26C470.12,638.81,470.12,641.14,470.12,641.14Z" fill="#f9b499"/>
<path d="M470.12,641.14c1.85,7.64-4.16,8.62-7.4,8.61,3-3.89,2.33-8.43,1.44-11.16a13.27,13.27,0,0,0-1.63-3.26,10.31,10.31,0,0,1-.4-10.83l5.76-11.78,8.22.47s-14.31,18.63-10.65,21.29a4.19,4.19,0,0,1,.33.26C470.12,638.81,470.12,641.14,470.12,641.14Z" fill="#f7a48b"/>
<path d="M456.5,634.53c-12.13,0-14.46-3.46-14.7-3.88-.66-1.38-.67-2.43-.05-3.2,1.06-1.32,3.41-.86,3.87-.76l-.45,1.95a2.9,2.9,0,0,0-1.86.06s-.05.33.23,1c.25.31,3,3.25,15.4,2.83.1,0,6.64,0,9.66-.78a.47.47,0,0,0,.1-.87,6.46,6.46,0,0,0-2.8-.57l.05-2a8.21,8.21,0,0,1,3.7.81,2.47,2.47,0,0,1-.55,4.56c-3.26.84-9.85.85-10.13.85C458.11,634.52,457.28,634.53,456.5,634.53Z" fill="#a553ca" data-primary="true"/>
<path d="M586.72,326.25c-4.87,7.81-8.36,6.23-10.52,3.25a19.88,19.88,0,0,1-2.62-5.74l-4-10.32c-2-5.65-10.48-6-10.48-6l-8.65-6.15,3.94-6.21,31.81-7.57-.82,10,3,3.83a16.77,16.77,0,0,1,2.91,7.86C592.24,318,586.72,326.25,586.72,326.25Z" fill="#f9b499"/>
<path d="M554.4,295.09s.22,6,16.19,5.54a21,21,0,0,0,9.68-1.86,4.13,4.13,0,0,1,2.55-.3,2.8,2.8,0,0,0,2.57-1l.82-10Z" fill="#f7a48b"/>
<path d="M604.94,279.09s-.25,26.54-6.24,46c-1-7.2-1.64-15-1.91-23.37-.14-4.39-.16-8.63-.07-12.69a21.08,21.08,0,0,0,2.64-2.78,16.84,16.84,0,0,0,3.51-7A17.4,17.4,0,0,1,604.94,279.09Z" fill="#2f2e41" data-secondary="true"/>
<path d="M384.2,199.25s13.73,12.06,11.65,20.63C395.85,219.88,387,215.47,384.2,199.25Z" fill="#a553ca" data-primary="true"/>
<g opacity="0.3">
<path d="M384.2,199.25s13.73,12.06,11.65,20.63C395.85,219.88,387,215.47,384.2,199.25Z"/>
</g>
<path d="M423,198.57c.87-.73,1.41-1.53,1.2-1.78l-73.67-87.56c-.21-.25-1.09.14-2,.88s-1.41,1.53-1.2,1.78l73.68,87.56C421.26,199.7,422.13,199.3,423,198.57Z" fill="#a553ca" data-primary="true"/>
<path d="M423,195.46l.5.54a12.78,12.78,0,0,0-2.51,3.19l-.68-.29A13,13,0,0,1,423,195.46Z" fill="#fff"/>
<path d="M419.63,191.42l.51.55a12.78,12.78,0,0,0-2.51,3.19l-.68-.29A13.34,13.34,0,0,1,419.63,191.42Z" fill="#fff"/>
<path d="M416.24,187.39l.5.54a12.7,12.7,0,0,0-2.51,3.2l-.68-.3A13.18,13.18,0,0,1,416.24,187.39Z" fill="#fff"/>
<path d="M412.85,183.36l.5.54a12.78,12.78,0,0,0-2.51,3.19l-.68-.29A12.79,12.79,0,0,1,412.85,183.36Z" fill="#fff"/>
<path d="M409.45,179.32l.51.55a12.53,12.53,0,0,0-2.52,3.19l-.68-.3A13.37,13.37,0,0,1,409.45,179.32Z" fill="#fff"/>
<path d="M406.06,175.29l.5.54a12.7,12.7,0,0,0-2.51,3.2l-.68-.3A13,13,0,0,1,406.06,175.29Z" fill="#fff"/>
<path d="M402.66,171.25l.51.55a12.78,12.78,0,0,0-2.51,3.19l-.69-.29A13.52,13.52,0,0,1,402.66,171.25Z" fill="#fff"/>
<path d="M399.27,167.22l.5.54a12.7,12.7,0,0,0-2.51,3.2l-.68-.3A13.18,13.18,0,0,1,399.27,167.22Z" fill="#fff"/>
<path d="M395.87,163.19l.51.54a12.78,12.78,0,0,0-2.51,3.19l-.68-.29A13,13,0,0,1,395.87,163.19Z" fill="#fff"/>
<path d="M392.48,159.15l.5.55a12.81,12.81,0,0,0-2.51,3.19l-.68-.29A13.29,13.29,0,0,1,392.48,159.15Z" fill="#fff"/>
<path d="M389.09,155.12l.5.54a12.7,12.7,0,0,0-2.51,3.2l-.68-.3A13,13,0,0,1,389.09,155.12Z" fill="#fff"/>
<path d="M385.69,151.08l.51.55a12.55,12.55,0,0,0-2.51,3.19l-.69-.29A13.52,13.52,0,0,1,385.69,151.08Z" fill="#fff"/>
<path d="M382.3,147.05l.5.54a12.9,12.9,0,0,0-2.51,3.2l-.68-.3A13.37,13.37,0,0,1,382.3,147.05Z" fill="#fff"/>
<path d="M378.9,143l.51.54a12.78,12.78,0,0,0-2.51,3.19l-.68-.29A13,13,0,0,1,378.9,143Z" fill="#fff"/>
<path d="M375.51,139l.5.55a12.58,12.58,0,0,0-2.51,3.19l-.68-.29A13.29,13.29,0,0,1,375.51,139Z" fill="#fff"/>
<path d="M372.12,135l.5.54a12.7,12.7,0,0,0-2.51,3.2l-.68-.3A12.79,12.79,0,0,1,372.12,135Z" fill="#fff"/>
<path d="M368.72,130.91l.51.55a12.73,12.73,0,0,0-2.52,3.19l-.68-.29A13.52,13.52,0,0,1,368.72,130.91Z" fill="#fff"/>
<path d="M365.33,126.88l.5.55a12.58,12.58,0,0,0-2.51,3.19l-.68-.3A13.37,13.37,0,0,1,365.33,126.88Z" fill="#fff"/>
<path d="M361.93,122.85l.51.54a12.78,12.78,0,0,0-2.51,3.19l-.68-.29A13,13,0,0,1,361.93,122.85Z" fill="#fff"/>
<path d="M358.54,118.81l.5.55a12.58,12.58,0,0,0-2.51,3.19l-.68-.29A13.29,13.29,0,0,1,358.54,118.81Z" fill="#fff"/>
<path d="M355.15,114.78l.5.54a12.7,12.7,0,0,0-2.51,3.2l-.68-.3A13,13,0,0,1,355.15,114.78Z" fill="#fff"/>
<path d="M351.75,110.74l.51.55a12.55,12.55,0,0,0-2.51,3.19l-.69-.29A13.29,13.29,0,0,1,351.75,110.74Z" fill="#fff"/>
<path d="M227.13,574.73s-4.7,5.19-10.35,2.2c0,0-4.66-5.32-9.82-1.66,0,0-2.82,2.49-1,7.32,0,0,.83,6.65-1.67,10.31,0,0-3.66,5.82-.5,14,0,0,.5,7.82,3.16,7.49,0,0,2.17.33,3-6.49,0,0,.5-7.65,20.79-18Z" fill="#f9b499"/>
<path d="M315.09,633s-13.31,12.64-2.5,15.47c0,0,7.77-.13,14,2.62a37.77,37.77,0,0,0,10.07,3,39.83,39.83,0,0,0,14.32-.24,1.54,1.54,0,0,0,.24-2.91c-.39-.16-.8-.35-1.23-.54a26,26,0,0,1-12.68-12.21l-2.88-5.84Z" fill="#f9b499"/>
<path d="M374.47,540.83l-5.32,47.24c-1,18.74-16.73,36.11-25.56,44.43a21.18,21.18,0,0,1-15.37,5.75c-16.28-.63-24.78-10.09-24.78-10.09-.33-.29-.64-.59-.92-.89a10.65,10.65,0,0,1-2.5-9,72.72,72.72,0,0,0,.62-13.84c-.38-8-1.05-16.53-1.89-25-3.66-37.23-10.61-74.78-10.61-74.78-.55-1.85-1.08-3.64-1.57-5.39C276,461.5,279,445.85,279,445.85l68.69-16,15-3.48,4.16,19.79C380.13,482.28,374.47,540.83,374.47,540.83Z" fill="#2f2e41" data-secondary="true"/>
<path d="M298.75,579.35c-25.39,17.85-56.16,22-64.81,22.84a3.26,3.26,0,0,1-3.32-2,75.26,75.26,0,0,1-4.93-22.53,3.28,3.28,0,0,1,1.44-2.92c9.63-6.51,30.9-38.06,30.9-38.06a160.39,160.39,0,0,1,28.54-37.49c.49,1.75,1,3.54,1.57,5.39C288.14,504.57,295.09,542.12,298.75,579.35Z" fill="#2f2e41" data-secondary="true"/>
<g opacity="0.2">
<path d="M297.12,487.44s-.83,42.58,6.32,73.19c0,0,10.71,40.89-.92,66.64a10.65,10.65,0,0,1-2.5-9,72.72,72.72,0,0,0,.62-13.84c-.38-8-1.05-16.53-1.89-25-3.66-37.23-10.61-74.78-10.61-74.78-.55-1.85-1.08-3.64-1.57-5.39C276,461.5,279,445.85,279,445.85l68.69-16C343.52,431.36,296.17,449.11,297.12,487.44Z"/>
</g>
<g opacity="0.2">
<path d="M307.93,618.68s43.75-16.63,58.89-62.54C366.82,556.14,350.35,624.17,307.93,618.68Z"/>
</g>
<g opacity="0.2">
<path d="M309.76,583.42s36.93-10.65,46.08-73.69C355.84,509.73,352.85,584.25,309.76,583.42Z"/>
</g>
<path d="M296.62,261.21l2.83,2.49a2.7,2.7,0,0,0,2.81.45c8.5-3.58,49.86-22.57,81.94-64.9,0,0,1.83,14.14,11.65,20.63,0,0-25.62,27.61-42.75,36.92l-58.56,32.61-5-19.13S292.22,271.11,296.62,261.21Z" fill="#a553ca" data-primary="true"/>
<g opacity="0.2">
<path d="M395.85,219.88s-9.13,9.83-20.12,19.74q-1.64,1.47-3.32,2.94c-6.52,5.67-13.42,11-19.31,14.24l-58.56,32.61-5-19.13s2.67.83,7.07-9.07l2.83,2.49a2.7,2.7,0,0,0,2.81.45c8.5-3.58,49.86-22.57,81.94-64.9C384.2,199.25,386,213.39,395.85,219.88Z"/>
</g>
<path d="M375.73,239.62q-1.64,1.47-3.32,2.94l-.77-13.45-9.76-4.89,2.49-2.29,10.77,4Z" fill="#2f2e41" data-secondary="true"/>
<path d="M405.58,180.37s.33,9.31-3.5,14.14l-10.82,21a16.91,16.91,0,0,1-2.45-3.28,37.67,37.67,0,0,1-4.31-11s10.6-9.41,10.43-18.06c0,0-.33-5.49-1.66-8.49,0,0-1.17-5.32,1.83-6.48,0,0,.5-4.16,3.32-4.16,0,0,.5-3.66,5.49-2.33l6.82,3.49s1.5.67,1,4.83h0s0,.06,0,.13C411.94,171.45,413,180.52,405.58,180.37Z" fill="#f9b499"/>
<path d="M405.58,180.37s.33,9.31-3.5,14.14l-10.82,21a16.91,16.91,0,0,1-2.45-3.28L399.26,193c.5-11.81,4.32-12.64,4.32-12.64,8.67-3.35,8.3-9.19,8.17-10.17C411.94,171.45,413,180.52,405.58,180.37Z" fill="#f7a48b"/>
<path d="M595.2,276.11l-11.28,14.56a21.6,21.6,0,0,1-30.3,3.85A20.52,20.52,0,0,1,550,265.7l6.6-8.52,9.86-12.72a12.9,12.9,0,0,1,18.11-2.3l7.05,5.46A20.32,20.32,0,0,1,595.2,276.11Z" fill="#f9b499"/>
<path d="M561.63,250.52s7.3-19.25,26.26-14.43c0,0,13.47,2.33,16.63,37.43,0,0-18.46,1.17-26.78-28.11Z" fill="#2f2e41" data-secondary="true"/>
<path d="M556.56,257.18,550,265.7a20.54,20.54,0,0,0-3.93,8.65h0s-.64-1.34-1.71-3.7c-4-8.86-14.13-31.95-19.64-51.52,0,0-3-11-8.48-17.14a16.45,16.45,0,0,1-5-11.47s-2.16-10.65-4.32-14.64c0,0,4.49-3,8.48,8.32l1.33,6a40.46,40.46,0,0,1,2.33-8s2.2-3.3-2.7-9.12a.4.4,0,0,1,.25-.66c1.7-.22,6-.13,7.61,6,0,0,1.66-.33,3.83,1.83a2.68,2.68,0,0,1,2.86,1.56,3.12,3.12,0,0,1,.08,2.11c-.64,2.12-2.41,8.77-1.21,14.37a4.81,4.81,0,0,0,.26.84c.89,2.15,5.12,12.25,9.67,20.74v0c.78,1.46,1.57,2.87,2.36,4.19.65,1.08,1.26,2.17,1.84,3.29C546.51,232.43,553.33,246.17,556.56,257.18Z" fill="#f9b499"/>
<path d="M522.35,185.86a.52.52,0,0,1-.29-.09.51.51,0,0,1-.12-.7c1.88-2.66,1.74-6.64,1.74-6.68a.5.5,0,1,1,1,0c0,.18.15,4.37-1.92,7.3A.49.49,0,0,1,522.35,185.86Z" fill="#f7a48b"/>
<path d="M526.18,186.52a.5.5,0,0,1-.36-.14.51.51,0,0,1,0-.71,6.47,6.47,0,0,0,1.7-5.37.5.5,0,0,1,.39-.59.51.51,0,0,1,.59.4,7.36,7.36,0,0,1-2,6.27A.49.49,0,0,1,526.18,186.52Z" fill="#f7a48b"/>
<path d="M586.72,326.25c-4.87,7.81-8.36,6.23-10.52,3.25,3-1.69,11.24-7.37,15.1-20.34C592.24,318,586.72,326.25,586.72,326.25Z" fill="#f7a48b"/>
<path d="M561.44,403.77l-4.79,1-2.86.62a8.9,8.9,0,0,1-2.44.3,10,10,0,0,1-6.21-2.46c-2.33-1.82-4-1.31-5-.62a5,5,0,0,1-3.06.85l-38-1.9c4-9.64,6.71-28.4,6.71-28.4,39.64,17,57.17,6.45,57.17,6.45C559.28,388,561.44,403.77,561.44,403.77Z" fill="#f9b499"/>
<path d="M556.65,404.81l-2.86.62a8.9,8.9,0,0,1-2.44.3,37.31,37.31,0,0,1,.28-21.76C552.14,395.1,555.28,402.21,556.65,404.81Z" fill="#f7a48b"/>
<path d="M663.24,598.72a126.7,126.7,0,0,1-18.56,13.84,75,75,0,0,1-23,9.5,50.67,50.67,0,0,1-14.73,1c-14.67-1.18-22.67-8.91-22.67-8.91a21.54,21.54,0,0,0-10-5.3c-5.68-1.51-12.33-1.73-18.54-1.39a126.05,126.05,0,0,0-20.84,3,85.33,85.33,0,0,1-13,2.81c-6.49.95-13.46,1.49-19.78,1.78-11.94.55-21.62.23-21.62.23-13,.25-21.91-.36-28-1.24C441.84,612.56,440,610.2,440,610.2a16.43,16.43,0,0,0-4.75-2.1c-14.1-3.79-31.84,10.08-31.84,10.08-7.49,4.83-2.5-2.83-2.5-2.83q4.83-6.06,9.31-12c8-10.6,15.13-20.85,21.45-30.48,25.28-38.49,37.44-67,37.44-67,2.83-6.85,5.57-14.73,8.14-23,10.74-34.46,18.64-75.48,18.64-75.48.33-5,3.16-5.83,3.16-5.83l10.82.54,27.18,1.36a5,5,0,0,0,3.06-.85c1-.69,2.69-1.2,5,.62a10,10,0,0,0,6.21,2.46,8.9,8.9,0,0,0,2.44-.3l2.86-.62,4.79-1,19,46L588.72,470c13.76,39.94,42.32,83.88,59.81,108.71,6,8.49,10.67,14.75,13,17.85Z" fill="#2f2e41" data-secondary="true"/>
<path d="M661.56,596.53c-39.81,28.32-66.35,9-66.35,9-35.43-13.14-71.7-1-71.7-1-52.89,12.81-87.66-1.83-87.66-1.83a41,41,0,0,0-25.62.63c8-10.6,15.13-20.85,21.45-30.48,3.94.22,10.57,1.23,21.44,4.35,2.45.7,4.88,1.51,7.26,2.44,5.18,2,19.78,6.53,40.85,3.51a62.46,62.46,0,0,0,7-1.44c9.78-2.56,45.77-11,78.61-6.62,0,0,13.47,1.5,34.1,7.65,0,0,12.42,3.63,27.54-4.07C654.51,587.17,659.2,593.43,661.56,596.53Z" fill="#a553ca" data-primary="true"/>
<g opacity="0.2">
<path d="M452.47,614.11C441.84,612.56,440,610.2,440,610.2a16.43,16.43,0,0,0-4.75-2.1c82-112,68.63-189,68.63-189-4,4-7.66,14.47-7.66,14.47-5.69,32.26-14.42,44.81-19,49.37,10.74-34.46,18.64-75.48,18.64-75.48.33-5,3.16-5.83,3.16-5.83l10.82.54c-3.57,10.14-.84,23.09-.84,23.09C521.21,506,465.77,594.33,452.47,614.11Z"/>
</g>
<g opacity="0.2">
<path d="M521.83,613.34c-6.49.95-13.46,1.49-19.78,1.78,2.71-17.22,21.33-138,19.63-199.38l5.83,7.32S529,556.47,521.83,613.34Z"/>
</g>
<g opacity="0.2">
<path d="M574.21,608.89c-5.68-1.51-12.33-1.73-18.54-1.39-4-37.94-18.85-185.6-18.85-185.6l14.47,12.31Z"/>
</g>
<g opacity="0.2">
<path d="M621.63,622.06a50.67,50.67,0,0,1-14.73,1L561.44,446.52l7-2.83Z"/>
</g>
<g opacity="0.2">
<path d="M663.24,598.72a126.7,126.7,0,0,1-18.56,13.84c-30.32-48-64.34-162.72-64.34-162.72l.07,0L588.72,470c13.76,39.94,42.32,83.88,59.81,108.71,6,8.49,10.67,14.75,13,17.85Z"/>
</g>
<path d="M503.13,387.08a94.25,94.25,0,0,1-4.07,14.52c-3,1-3.16,5.83-3.16,5.83l-1.82,9.29c-.63,3.23-1.54,7.36-2.58,11.88-3.9,16.83-9.66,38.91-9.66,38.91l-18,23.92c-5.16,8-12-4.33-12-4.33a10.58,10.58,0,0,0-1.84-1.35c-4.63-2.7-10.61-1.63-13.33-.92a.31.31,0,0,1-.28-.54c5.49-4.76,29.49-27.27,57.2-79.19Z" fill="#a553ca" data-primary="true"/>
<g opacity="0.2">
<path d="M503.13,387.08a94.25,94.25,0,0,1-4.07,14.52c-3,1-3.16,5.83-3.16,5.83l-1.82,9.29c-.63,3.23-1.54,7.36-2.58,11.88-3.9,16.83-9.66,38.91-9.66,38.91l-18,23.92c-5.16,8-12-4.33-12-4.33a10.58,10.58,0,0,0-1.84-1.35c-4.63-2.7-10.61-1.63-13.33-.92a.31.31,0,0,1-.28-.54c5.49-4.76,29.49-27.27,57.2-79.19Z" fill="#fff"/>
</g>
<path d="M628.81,320.76,626.65,364c0,28.45-10,46.74-10,46.74-11.18,20.31-16.55,25.21-18.13,26.32-.83.58-1.65,1.19-2.45,1.83a50.43,50.43,0,0,0-8,7.78c-35.26,38.43-63.53-44-63.53-44L530,403l7.08.48a4.5,4.5,0,0,0,3.06-.85c2.63-1.79,5,.62,5,.62,4.66,3.66,8.65,2.16,8.65,2.16l7.65-1.66c10.48,9.31,15.64-.83,15.64-.83a146.13,146.13,0,0,0,9.48-27.28c2.66-9.65.83-20.3.83-20.3-1.5-12.31,1-25.58,1-25.58,6.36-16.1,4.52-24.36,4.52-24.36-.94-4.69-4.55-4.12-4.55-4.12l-3-3.83.67-8.15a3.16,3.16,0,0,0,1.31,2.61c4,2.77,9.35-2.9,9.35-2.9-.16,8.52,2,36.06,2,36.06,4.49-14,5.66-34.44,5.66-34.44,1.49-11.81-1.16-27-1.16-27-4-25-15.31-27.56-15.31-27.56a20.53,20.53,0,0,0-10.48-.33,36.18,36.18,0,0,1,6.13-2.69c25-8.17,35.62,24.32,35.62,24.32l7.49,35.09C630,310.62,628.81,320.76,628.81,320.76Z" fill="#a553ca" data-primary="true"/>
<g opacity="0.2">
<path d="M628.81,320.76,626.65,364c0,28.45-10,46.74-10,46.74-11.18,20.31-16.55,25.21-18.13,26.32-.83.58-1.65,1.19-2.45,1.83a50.43,50.43,0,0,0-8,7.78c-35.26,38.43-63.53-44-63.53-44L530,403l7.08.48a4.5,4.5,0,0,0,3.06-.85c2.63-1.79,5,.62,5,.62,4.66,3.66,8.65,2.16,8.65,2.16l7.65-1.66c10.48,9.31,15.64-.83,15.64-.83a146.13,146.13,0,0,0,9.48-27.28c2.66-9.65.83-20.3.83-20.3-1.5-12.31,1-25.58,1-25.58,6.36-16.1,4.52-24.36,4.52-24.36-.94-4.69-4.55-4.12-4.55-4.12l-3-3.83.67-8.15a3.16,3.16,0,0,0,1.31,2.61c4,2.77,9.35-2.9,9.35-2.9-.16,8.52,2,36.06,2,36.06,4.49-14,5.66-34.44,5.66-34.44,1.49-11.81-1.16-27-1.16-27-4-25-15.31-27.56-15.31-27.56a20.53,20.53,0,0,0-10.48-.33,36.18,36.18,0,0,1,6.13-2.69c25-8.17,35.62,24.32,35.62,24.32l7.49,35.09C630,310.62,628.81,320.76,628.81,320.76Z" fill="#fff"/>
</g>
<g opacity="0.2">
<path d="M628.81,320.76,626.65,364c0,28.45-10,46.74-10,46.74-11.18,20.31-16.55,25.21-18.13,26.32-.83.58-1.65,1.19-2.45,1.83a50.43,50.43,0,0,0-8,7.78c-35.26,38.43-63.53-44-63.53-44L530,403l0,0s40.06,48.28,54.86,35.14c0,0,13.48-22.12,27.12-36.76,0,0,13.47-10.65,12.31-41.75,0,0-2.16-65.21-6-77l-1.83,51.57-.33-48.08s.5-18.29-6.16-34.1c0,0-6.13-18-26.47-19,25-8.17,35.62,24.32,35.62,24.32l7.49,35.09C630,310.62,628.81,320.76,628.81,320.76Z" fill="#fff"/>
</g>
<g opacity="0.2">
<path d="M614,391.13c.49-14.5,1.33-29.13,2.5-43.59-.49,14.5-1.33,29.13-2.5,43.59Z" fill="#fff"/>
</g>
<g opacity="0.2">
<path d="M599,398.61c-2.1,8.7-4.56,17.43-7.32,25.95,2.1-8.7,4.57-17.43,7.32-25.95Z" fill="#fff"/>
</g>
<g opacity="0.2">
<path d="M580.57,429.05l-4.66-5.32s2.33-12.48,10.15-18.13A103.25,103.25,0,0,0,580.57,429.05Z" fill="#fff"/>
</g>
<g opacity="0.2">
<path d="M588.72,390.13a107.53,107.53,0,0,0,7.39-18.71,136.74,136.74,0,0,0,3.37-14c0-.19.31-1.59.35-1.77.12-.78.48-3.1.61-3.91.3-1.86.49-3.85.76-5.71-.11,1.37-.25,2.92-.36,4.31s-.49,3.87-.68,5.37-.52,3.12-.79,4.62-.83,4-1.26,5.64a105,105,0,0,1-4.93,15.08,71.12,71.12,0,0,1-4.46,9.06Z" fill="#fff"/>
</g>
<g opacity="0.2">
<path d="M541.48,413.08s17.8,17.63,36.76,19.46C578.24,432.54,561.61,439,541.48,413.08Z" fill="#fff"/>
</g>
<g opacity="0.2">
<polygon points="555.78 416.41 559.11 422.73 572.75 427.22 572.25 423.06 555.78 416.41" fill="#fff"/>
</g>
<g opacity="0.2">
<path d="M551.29,406.59s3.16,13.31,22.46,11.15l3.49-9S560.11,413.58,551.29,406.59Z" fill="#fff"/>
</g>
<path d="M591.32,321.43a53.8,53.8,0,0,1-2.7,7.94c-4.38,10.18-10.25,21-13.19,26.24-1,1.83-2.15,3.61-3.34,5.33-7.25,10.5-9.15,18.71-9.15,18.71-.79.37-1.6.7-2.42,1-16.77,6.08-40.37-1.6-51-5.78-3.51-1.38-5.61-2.38-5.61-2.38l2.35-11.89a33.55,33.55,0,0,1,.8-3.29c1.14-3.69-.4-7.65-1.35-9.58a23.74,23.74,0,0,1-2-6c-2.49-12.65,7.39-16.52,7.39-16.52-.14-2.06-.23-4-.26-5.83-.4-19.62,4.75-25.61,4.75-25.61a52.66,52.66,0,0,1,15.56,2.7,4.28,4.28,0,0,0,3.47-.41c4.7-2.72,15.9,5.2,15.9,5.2l8.65,6.15c9,.67,10.48,6,10.48,6l4,10.32c2.33,7.81,5.43,7.92,5.43,7.92,4.79,1.41,8.78-6.84,10.6-11.45a23.79,23.79,0,0,0,1.71-8.86c0-6.8-2.93-10.07-2.93-10.07C595.55,300.94,593.14,314.23,591.32,321.43Z" fill="#a553ca" data-primary="true"/>
<path d="M524.68,219.13s2.25,8.35,3.45,11.24a12.82,12.82,0,0,0,11.53-10.57l-3.1-6.17S529.5,224.28,524.68,219.13Z" fill="#a553ca" data-primary="true"/>
<path d="M515.53,293.81s-5.19-3.27-11.87-7.2c-7.1-4.18-15.89-9.1-21.9-11.59a255.06,255.06,0,0,1-19.63-30.61l-12.47-23.29s-2.83-6.15.83-10.64a32.33,32.33,0,0,0,6.49-9.15s6-11.31,4.49-14.81c0,0-4.49-5.82-7.49-2.49l-1.83,3.33s-1-7.32-8-.5c0,0-4.33-1.17-5,3.32,0,0-1.83-1-4,1,0,0-1.83,1.67.83,3.83,0,0,3.16,2-1,9.81a16.39,16.39,0,0,0-1.78,9.27,19.45,19.45,0,0,0,1.78,6.53s2.5,5.16,6.15,19.47A135.21,135.21,0,0,0,450,263.21l8.48,15.47s3.16,8,8.32,9c0,0,25.59,24.07,44,31.76,0-2.28,0-4.37.07-6.29C511.5,298.49,515.53,293.81,515.53,293.81Zm-63-105.36L455,187a.27.27,0,0,1,.32,0l1.08,1.08a.25.25,0,0,1,.06.26l-1.27,4.21a.49.49,0,0,1-.9.09l-1.89-3.55A.48.48,0,0,1,452.54,188.45Z" fill="#f9b499"/>
<path d="M442,197.5h0a.49.49,0,0,1-.46-.53c.31-4.63-2.55-6.34-2.58-6.35a.51.51,0,0,1-.18-.69.49.49,0,0,1,.68-.18c.14.08,3.42,2.05,3.08,7.29A.5.5,0,0,1,442,197.5Z" fill="#f7a48b"/>
<path d="M447.33,194.34a.5.5,0,0,1-.5-.46,10.56,10.56,0,0,0-3-6.65.49.49,0,0,1,0-.7.51.51,0,0,1,.71-.05,11.4,11.4,0,0,1,3.33,7.33.5.5,0,0,1-.46.53Z" fill="#f7a48b"/>
<g opacity="0.2">
<path d="M491.5,428.6c-3.9,16.83-9.66,38.91-9.66,38.91l-18,23.92c-5.16,8-12-4.33-12-4.33a10.58,10.58,0,0,0-1.84-1.35c1.06-1.48,3.2-3.42,7.5-4.63,0,0,.83-3.5,12.31-13.14,0,0,4.32-2.33,6.65-9Z" fill="#fff"/>
</g>
<path d="M556.56,257.18,550,265.7a20.54,20.54,0,0,0-3.93,8.65h0s-.64-1.34-1.71-3.7a52,52,0,0,1,5.24-9.2,11.42,11.42,0,0,0,2-7.94c-1.51-11.62-11.33-32.61-11.83-33.67.78,1.46,1.57,2.87,2.36,4.19.65,1.08,1.26,2.17,1.84,3.29C546.51,232.43,553.33,246.17,556.56,257.18Z" fill="#f7a48b"/>
<path d="M510.78,319.42c-18.4-7.69-44-31.76-44-31.76-5.16-1-8.32-9-8.32-9L450,263.21a135.21,135.21,0,0,1-8.82-23.12c-3.65-14.31-6.15-19.47-6.15-19.47a19.45,19.45,0,0,1-1.78-6.53l0-.27a64.44,64.44,0,0,0,5.25,10.3s8,33.1,22.46,52.73c0,0,28.45,26.27,49.88,36.28C510.76,315.05,510.73,317.14,510.78,319.42Z" fill="#f7a48b"/>
<path d="M265.67,256.8l3.51,10.07s16.13.5,22.29,2.83c0,0,3.49-2.5,5.15-8.49l-1-2.44Z" fill="#f9b499"/>
<path d="M265.67,256.8s11.66,19.38,30.95,4.41l-1-2.44Z" fill="#f7a48b"/>
<path d="M427.23,397.62c-3.59,3.56-8.63,6.72-13.4,9.25a120.82,120.82,0,0,1-13.4,6,.56.56,0,0,0-.35.7l.58,1.9a1.8,1.8,0,0,1-.86,2.11L375.17,431a1.8,1.8,0,0,1-2.42-.66L370.17,426h0a.58.58,0,0,0-.88-.13,63.86,63.86,0,0,1-9,6.81,72,72,0,0,1-21.71,9.16.77.77,0,0,1-.93-.71l-.19-4.65v-.12a2.06,2.06,0,0,0-2.61-1.77l-1.75.5-7.57,2.15-8.49,2.42a1.71,1.71,0,0,0-1.25,1.73l.22,5.66a2,2,0,0,1-.57,1.5,2,2,0,0,1-.75.5c-24,9.09-43.37,4.29-43.37,4.29l.66-7.82a38.44,38.44,0,0,1-5.84-.78,45.72,45.72,0,0,1-15.61-6.54q0-3.56.2-7l0-.77c.08-1.62.18-3.22.3-4.79l.06-.75q.53-6.75,1.45-12.84c5.83-39.06,22.08-57.73,22.08-57.73-.35-.56-.68-1.13-1-1.68-.64-1.07-1.25-2.12-1.84-3.15-2.6-4.56-4.74-8.64-6.4-12A63.1,63.1,0,0,1,258.84,308a48.56,48.56,0,0,1,2.23-13.88c1.89-5.8,4.28-8.41,4.28-8.41,4.16-5,4.16-8.31,4.16-8.31l-.33-10.48a74.93,74.93,0,0,1,22.29,2.83c4.82,1.66,4.49,5.48,4.49,5.48,25.12,4.83,94.65-44.91,94.65-44.91,1.83,18.47,13.14,23.62,13.14,23.62-15.31,21.46-60.55,51.9-60.55,51.9l3.16,13.61,1.16,5a138.48,138.48,0,0,1,36.39,21.28,196.35,196.35,0,0,1,36.21,38.54l.41.58c.79,1.12,1.53,2.17,2.2,3.16.13.19.25.38.38.56,2.13,3.15,3.6,5.55,4.4,6.89A1.79,1.79,0,0,1,427.23,397.62Z" fill="#a553ca" data-primary="true"/>
<path d="M278.62,276.3c-3.32,0-6.58-.09-9.25-.35l.1-1c9.41.92,26.28-.25,26.45-.26l.07,1C295.87,275.69,287.08,276.3,278.62,276.3Z" fill="#fff"/>
<path d="M291.52,275.59a3.55,3.55,0,0,0-3.4-3.73l-19-.7,0-1,19,.7a4.58,4.58,0,0,1,4.36,4.7Z" fill="#fff"/>
<g opacity="0.2">
<path d="M343.2,305.79l1.45,6.28L295,324.42s84-43.64,103.31-74.63a37.28,37.28,0,0,0,5.48,4.1S387,276.35,343.2,305.79Z"/>
</g>
<g opacity="0.2">
<path d="M288.48,346.09s-9,2.29-16.66,3.44c-2.6-4.56-4.74-8.64-6.4-12A63.1,63.1,0,0,1,258.84,308a48.56,48.56,0,0,1,2.23-13.88C261,297.66,260.68,333.51,288.48,346.09Z" fill="#fff"/>
</g>
<g opacity="0.2">
<path d="M384,345.88c-9.92-5.43-24.14-12.47-30-15.33a7.72,7.72,0,0,0-6.87,0,65.72,65.72,0,0,0-10.59,7.34A63.2,63.2,0,0,1,304.28,353c-15.47,2-20.8,4.83-20.8,4.83-25.78,14-31.94,73.52-31.94,73.52-.65-10.57,4.43-28.47,4.65-29.25l-3.6,10c5.83-39.06,22.08-57.73,22.08-57.73-.35-.56-.68-1.13-1-1.68l.52-.08A235.82,235.82,0,0,0,341,327.08l5.32-7.68,1.16,5a138.48,138.48,0,0,1,36.39,21.28Z"/>
</g>
<path d="M420.53,384.82l-.37.09c-7.44.89-16.61,7.84-21.41,11.9a29.74,29.74,0,0,0-4.27,4.46,21.34,21.34,0,0,1-15.23,7.78,33.78,33.78,0,0,0-16.18,5.65c-1.91,1.28-3.16,2.29-3.17,2.3l0,0c-7.71,5.11-19.8,6.64-24.64,7.06-.91.07-1.9.11-3.14.1h0c-7.23,0-19.17,6.59-19.28,6.66h0c-6,2.74-13.14,3.56-19.51,3.56-2.91,0-5.66-.17-8.08-.41a96.4,96.4,0,0,1-14.79-2.62,38.14,38.14,0,0,1-19.28-5.7l.06-.75a37.4,37.4,0,0,0,19.28,5.78l.08,0a96.14,96.14,0,0,0,14.72,2.61c7.65.75,18.59.83,27.23-3.09.65-.36,12.25-6.73,19.6-6.73h.24c1.12,0,2,0,2.89-.11,4.78-.41,16.72-1.91,24.31-6.94.14-.11,1.38-1.1,3.21-2.33a34.6,34.6,0,0,1,16.5-5.76A20.61,20.61,0,0,0,394,400.85a32.08,32.08,0,0,1,4.37-4.55c4.86-4.11,14.14-11.14,21.76-12.05h0Z" fill="#2f2e41" data-secondary="true"/>
<path d="M423.11,388.54c-7.62,2.64-18.06,9.16-22.19,12.65a74.81,74.81,0,0,0-6.54,6.94c-4,5.11-9.1,5.17-12.8,5.22-.7,0-1.37,0-1.95.06-4.8.38-10.43,2.71-16.73,6.94-1.91,1.28-3.16,2.3-3.17,2.31l0,0c-9.76,6.46-26.67,7.2-26.84,7.2h0c-7.08-.65-20.1,6.54-20.23,6.61l0,0c-6,2.73-13.14,3.55-19.51,3.55-2.91,0-5.66-.17-8.08-.41A95.59,95.59,0,0,1,270.19,437a38.2,38.2,0,0,1-19.44-5.79l0-.77a37.44,37.44,0,0,0,19.47,5.9h.08A93.31,93.31,0,0,0,285.05,439c7.66.76,18.59.83,27.23-3.08.7-.39,13.35-7.34,20.58-6.69.69,0,17-.84,26.46-7.09.14-.11,1.38-1.1,3.21-2.33,6.39-4.29,12.13-6.66,17.05-7.05.6-.05,1.28-.06,2-.07,3.56,0,8.44-.11,12.29-5a74.34,74.34,0,0,1,6.63-7c4.13-3.49,14.53-10,22.24-12.7C422.86,388.17,423,388.36,423.11,388.54Z" fill="#2f2e41" data-secondary="true"/>
<path d="M410.79,235.43c1.13-.17,2-.57,2-.89l-16.7-113.21c-.05-.32-1-.44-2.13-.28s-2,.56-1.95.89l16.7,113.21C408.71,235.47,409.67,235.59,410.79,235.43Z" fill="#a553ca" data-primary="true"/>
<path d="M412.45,232.79l.14.73a12.46,12.46,0,0,0-3.81,1.4l-.43-.61A13,13,0,0,1,412.45,232.79Z" fill="#fff"/>
<path d="M411.68,227.57l.14.73a13.06,13.06,0,0,0-3.81,1.4l-.43-.61A13.31,13.31,0,0,1,411.68,227.57Z" fill="#fff"/>
<path d="M410.91,222.36l.14.73a12.46,12.46,0,0,0-3.81,1.4l-.42-.61A12.92,12.92,0,0,1,410.91,222.36Z" fill="#fff"/>
<path d="M410.14,217.14l.14.73a13.06,13.06,0,0,0-3.81,1.4l-.42-.61A13.19,13.19,0,0,1,410.14,217.14Z" fill="#fff"/>
<path d="M409.37,211.93l.15.73a12.56,12.56,0,0,0-3.82,1.39l-.42-.6A12.92,12.92,0,0,1,409.37,211.93Z" fill="#fff"/>
<path d="M408.6,206.71l.15.73a12.68,12.68,0,0,0-3.82,1.4l-.42-.61A13.28,13.28,0,0,1,408.6,206.71Z" fill="#fff"/>
<path d="M407.83,201.5l.15.72a13,13,0,0,0-3.82,1.4l-.42-.6A13.1,13.1,0,0,1,407.83,201.5Z" fill="#fff"/>
<path d="M407.06,196.28l.15.73a12.39,12.39,0,0,0-3.82,1.4l-.42-.61A13.37,13.37,0,0,1,407.06,196.28Z" fill="#fff"/>
<path d="M406.3,191.07l.14.72a13,13,0,0,0-3.82,1.4l-.42-.61A13.19,13.19,0,0,1,406.3,191.07Z" fill="#fff"/>
<path d="M405.53,185.85l.14.73a12.28,12.28,0,0,0-3.81,1.4l-.43-.61A13,13,0,0,1,405.53,185.85Z" fill="#fff"/>
<path d="M404.76,180.63l.14.73a12.86,12.86,0,0,0-3.81,1.4l-.43-.61A13.59,13.59,0,0,1,404.76,180.63Z" fill="#fff"/>
<path d="M404,175.42l.14.73a12.37,12.37,0,0,0-3.81,1.4l-.43-.61A13,13,0,0,1,404,175.42Z" fill="#fff"/>
<path d="M403.22,170.2l.14.73a13.06,13.06,0,0,0-3.81,1.4l-.43-.61A13.59,13.59,0,0,1,403.22,170.2Z" fill="#fff"/>
<path d="M402.45,165l.14.73a12.46,12.46,0,0,0-3.81,1.4l-.43-.61A13,13,0,0,1,402.45,165Z" fill="#fff"/>
<path d="M401.68,159.77l.14.73a13.06,13.06,0,0,0-3.81,1.4l-.43-.61A13.31,13.31,0,0,1,401.68,159.77Z" fill="#fff"/>
<path d="M400.91,154.56l.14.73a12.62,12.62,0,0,0-3.81,1.39l-.43-.6A13,13,0,0,1,400.91,154.56Z" fill="#fff"/>
<path d="M400.14,149.34l.14.73a12.75,12.75,0,0,0-3.81,1.4l-.43-.61A13.31,13.31,0,0,1,400.14,149.34Z" fill="#fff"/>
<path d="M399.37,144.13l.14.73a12.62,12.62,0,0,0-3.81,1.39l-.42-.6A12.92,12.92,0,0,1,399.37,144.13Z" fill="#fff"/>
<path d="M398.6,138.91l.15.73a12.39,12.39,0,0,0-3.82,1.4l-.42-.61A13.19,13.19,0,0,1,398.6,138.91Z" fill="#fff"/>
<path d="M397.83,133.7l.15.72a13,13,0,0,0-3.82,1.4l-.42-.61A13.08,13.08,0,0,1,397.83,133.7Z" fill="#fff"/>
<path d="M397.06,128.48l.15.73a12.39,12.39,0,0,0-3.82,1.4L393,130A13,13,0,0,1,397.06,128.48Z" fill="#fff"/>
<path d="M396.29,123.27l.15.72a13,13,0,0,0-3.82,1.4l-.42-.61A13.25,13.25,0,0,1,396.29,123.27Z" fill="#fff"/>
<polygon points="355.97 252.6 375.64 259.71 374.65 282.25 380.21 277.55 381.96 256.06 362.53 248.75 355.97 252.6" fill="#2f2e41" data-secondary="true"/>
<path d="M390.61,230.27s14.3,13.64,13.14,23.62C403.75,253.89,392.44,248.74,390.61,230.27Z" fill="#a553ca" data-primary="true"/>
<g opacity="0.3">
<path d="M390.61,230.27s14.3,13.64,13.14,23.62C403.75,253.89,392.44,248.74,390.61,230.27Z"/>
</g>
<path d="M400.42,222.79l-9.28,10.82s.94,9.49,7.61,16.3l12.48-15.15s11.81-8.15,9-20.62c0,0-1.5-19.47-9.82-14.64,0,0-4,1-6.15,7.32,0,0-1.33.5-1.33-2,0,0-.25-4.43-1.91-6.62a.53.53,0,0,0-.95.28,40.63,40.63,0,0,1-.8,4.84S396.6,215.63,400.42,222.79Z" fill="#f9b499"/>
<path d="M269.51,277.35c-.08,3.41-4.16,8.31-4.16,8.31-3.24,3.75-5.07,10.9-5.07,10.9l-3.06-2.6-8.09-6.88c5.82-12,10.35-30.6,10.35-30.6l5.31-1.21.88,1.53,2.09,6,1.42,4.08Z" fill="#a553ca" data-primary="true"/>
<g opacity="0.2">
<path d="M269.51,277.35c-.08,3.41-4.16,8.31-4.16,8.31-3.24,3.75-5.07,10.9-5.07,10.9l-3.06-2.6,10.54-31.17,1.42,4.08Z"/>
</g>
<path d="M258.18,206.58h37.9a0,0,0,0,1,0,0v40.77a18.95,18.95,0,0,1-18.95,18.95h0a18.95,18.95,0,0,1-18.95-18.95V206.58A0,0,0,0,1,258.18,206.58Z" transform="translate(-72.09 132.75) rotate(-23.93)" fill="#f9b499"/>
<path d="M262.09,231.39l1.84,3.06a1,1,0,0,1,0,1.11l-1.85,2.84a1,1,0,0,0-.1.93,65.65,65.65,0,0,1,3.31,12.09l-11.52-6.71a14.12,14.12,0,0,0,3.45-9.61A25.49,25.49,0,0,0,262.09,231.39Z" fill="#2f2e41" data-secondary="true"/>
<path d="M287.56,218.05l4.61,5.6-2.06-4.59s-.06-.85-1.26-.85Z" fill="#2f2e41" data-secondary="true"/>
<ellipse cx="259.03" cy="250.4" rx="4.82" ry="7.65" transform="translate(-101.19 256.5) rotate(-45)" fill="#f9b499"/>
<path d="M257.2,235.1s1,7-6,12c0,0-3.66,2.5-5.65-2.83,0,0-3.16-2.49-1-7.31a11.92,11.92,0,0,1-1.17-10.48s-3.82-5.33,1.17-13.31a16.1,16.1,0,0,1,11.14-9s2.17-7.16,14.47-7.32c0,0,7-2.5,17,6.48l9,10.66a2.83,2.83,0,0,1,.48.78c.79,1.83,3.25,8.85-2.43,13.4l-4.12-9.1a1.45,1.45,0,0,0-1.26-.85,10.06,10.06,0,0,1-5.7-1.74s-3.16-.84-8.15,2.32c0,0-8,3.5-9.32,6.16C265.68,225,264.85,230.77,257.2,235.1Z" fill="#a553ca" data-primary="true"/>
<g opacity="0.2">
<path d="M243.39,226.45a21,21,0,0,1,8-9.82s4.11-2.43,6.73-2.95a1.57,1.57,0,0,1,1.8,2c-.56,1.65-2.17,4.45-6.87,6.74a11.75,11.75,0,0,0-1.09.86,12.63,12.63,0,0,0-4.31,8.4c-.18,1.8-.71,4.4-2.36,5.06a.84.84,0,0,1-1-.39C243.43,234.9,241.51,230.62,243.39,226.45Z"/>
</g>
<g opacity="0.2">
<path d="M266.52,200.16l-2,4.5A29.93,29.93,0,0,0,250,216.32a5.38,5.38,0,0,1-1.19,1.08,1.89,1.89,0,0,1-2.89-2c.57-2.64,2.6-7.81,9.75-11.27C255.7,204.16,260.19,198.83,266.52,200.16Z"/>
</g>
<g opacity="0.2">
<path d="M246.85,243a1.83,1.83,0,0,1,.19-2c1-1.28,2.89-3.8,3-5.36.16-2.17-1.5-4.33,3.66-10A47.7,47.7,0,0,0,261,216a13.41,13.41,0,0,0,1.43-4.67,13.41,13.41,0,0,1,3.28-7l4.49-7.48s3.94-.94,6.88.53c0,0-7.37,9.12-8.87,14.27a19.82,19.82,0,0,1-6.94,9.61,2.56,2.56,0,0,0-1.05,1.92A12.24,12.24,0,0,1,254,233.43a9.62,9.62,0,0,1-2.83,10s-2.16,2.5-4,.17A6.19,6.19,0,0,1,246.85,243Z"/>
</g>
<g opacity="0.2">
<path d="M274.33,202.49l-3,5.49s5.16-2.66,9.48-.33c0,0,1.33,1.83,7,2.33l2.88.34a.61.61,0,0,0,.57-1C289.59,207.08,284.74,202.11,274.33,202.49Z"/>
</g>
<g opacity="0.2">
<path d="M268,221.85a11.07,11.07,0,0,0-2.49,2.34c-.46.58-1.09,1-1.77.43-1.33-1.17-.83-4.33,2.49-6.16,0,0,6.49-4,9.48-3.49A40.48,40.48,0,0,1,268,221.85Z"/>
</g>
<g opacity="0.2">
<path d="M274.67,210.31s-5.49-.66-5.49,1.83c0,0-2.5,3.83,1,2.66a33.9,33.9,0,0,1,12.4-1.9,13.64,13.64,0,0,1,6.12,1.7c2.39,1.32,5.2,3.53,5.11,6.52l-.47,5.1.9,1.94a8.41,8.41,0,0,0,3.4-5.23,9.49,9.49,0,0,0-6.58-11.05A43.37,43.37,0,0,0,274.67,210.31Z"/>
</g>
<path d="M274.67,354.36l-3-4.81s47.42-6.59,74.42-31.08l1.39,5.95S320.08,353.2,274.67,354.36Z" fill="#2f2e41" data-secondary="true"/>
<g opacity="0.2">
<path d="M370.17,426a.58.58,0,0,0-.88-.13,63.86,63.86,0,0,1-9,6.81C355.8,412.06,341.16,356.51,341,356,346,365.32,370,425.53,370.17,426Z"/>
</g>
<g opacity="0.2">
<path d="M413.83,406.87a120.82,120.82,0,0,1-13.4,6,.56.56,0,0,0-.35.7c-8.82-18-33.26-54.25-33.26-54.25C378.17,368,412.1,405,413.83,406.87Z"/>
</g>
<g opacity="0.2">
<path d="M325.55,437.24l-8.49,2.42a1.71,1.71,0,0,0-1.25,1.73l.22,5.66a2,2,0,0,1-.57,1.5c-1.58-12.12-6.52-52.87-3.7-69.07C311.76,379.48,315.21,420.33,325.55,437.24Z"/>
</g>
<g opacity="0.2">
<path d="M337.48,436.36a2.06,2.06,0,0,0-2.61-1.77l-1.75.5c-.37-7-1.66-33-1.23-41.3C331.89,393.79,336.24,418.18,337.48,436.36Z"/>
</g>
<g opacity="0.2">
<path d="M278,408.59c-2.33,9.65-6,36.93-6,36.93a38.44,38.44,0,0,1-5.84-.78C270.25,413.81,278,408.59,278,408.59Z"/>
</g>
<path d="M578.11,245.75l-.74-.68c.24-.25,5.8-6.22,12.11-8.87l.39.92C583.76,239.69,578.16,245.69,578.11,245.75Z" fill="#a553ca" data-primary="true"/>
<path d="M573.14,251.62s2.52,24,17.33,30l5-8S578.94,261.25,573.14,251.62Z" fill="#f7a48b"/>
<ellipse cx="594.51" cy="283.39" rx="11.49" ry="5.62" transform="translate(-4.2 557.8) rotate(-50.11)" fill="#f9b499"/>
<path d="M561.63,250.52a32.3,32.3,0,0,1,1.64-3.28,34.06,34.06,0,0,1,2.66-4l11.81,2.16s6.9,26.36,26.78,28.11l.17,5.82s-23,1.67-31.61-28.94Z" fill="#a553ca" data-primary="true"/>
<ellipse cx="571.61" cy="251.07" rx="5.16" ry="3.32" transform="translate(1.88 506.38) rotate(-47.85)" fill="#a553ca" data-primary="true"/>
<path d="M569.86,256a3,3,0,0,1-2.05-.74c-1.59-1.44-1.17-4.41,1-6.76s5.05-3.07,6.64-1.64,1.16,4.41-1,6.77h0A6.56,6.56,0,0,1,569.86,256Zm3.51-8.86a5.63,5.63,0,0,0-3.85,2c-1.7,1.87-2.17,4.32-1,5.35s3.52.31,5.22-1.57,2.17-4.32,1-5.34A2,2,0,0,0,573.37,247.15Z" fill="#2f2e41" data-secondary="true"/>
<path d="M511,325.25l.16,4.16,6.66.83s-1-29.49,4.64-35.87a40.33,40.33,0,0,0-7-.56S509.21,301.3,511,325.25Z" fill="#2f2e41" data-secondary="true"/>
<g opacity="0.2">
<path d="M511.2,329.41l24.62,4.49s1.33,4.83,12.65,8.15a16.6,16.6,0,0,1-11.81-5s3.32,6.32,12,11.15c0,0-9.48-2.66-14.14-11.48,0,0,5.33,17.63,20.8,23.79,0,0-18-4.66-24.62-25.62Z"/>
</g>
<g opacity="0.2">
<path d="M591.32,321.43a53.8,53.8,0,0,1-2.7,7.94c-4.38,10.18-10.25,21-13.19,26.24-1,1.83-2.15,3.6-3.34,5.33-7.25,10.5-9.15,18.71-9.15,18.71-.79.37-1.6.7-2.42,1-1-8,2.29-14.64,4.29-17.87a14,14,0,0,0,1.87-4.7c1.21-6,3.51-8.33,4.68-9.14a14.07,14.07,0,0,0,2.9-2.6c5.2-6.29,4.75-14.66,4.75-14.66,4.79,1.41,8.78-6.84,10.6-11.45a23.79,23.79,0,0,0,1.71-8.86c0-6.8-2.93-10.07-2.93-10.07C595.55,300.94,593.14,314.23,591.32,321.43Z"/>
</g>
<g opacity="0.2">
<path d="M511.7,363.35l-2.2,11.52c-3.51-1.38-5.61-2.38-5.61-2.38l2.31-11.72a34.37,34.37,0,0,1,.84-3.47c1.14-3.68-.4-7.64-1.35-9.57a23.74,23.74,0,0,1-2-6c-2.49-12.65,7.39-16.52,7.39-16.52s-7.6,8.19-5.54,15.38a5.54,5.54,0,0,0,1.14,2.07C508.39,344.77,513.36,351.77,511.7,363.35Z" fill="#fff"/>
</g>
<path d="M445.85,253.71c.68-3.32,3.73-12.31,16.72-8.57a.66.66,0,0,0,.77-.91l-5.15-11.08a2.93,2.93,0,0,0-2.53-1.71c-4.15-.21-14.07.31-15.1,9.87a3.62,3.62,0,0,0,.1,1.31c.32,1.31,1.35,4.58,4.48,11.18A.38.38,0,0,0,445.85,253.71Z" fill="#a553ca" data-primary="true"/>
</svg>